# xmcd
#
# Track frame offsets:
#	150
#	32310
#	57377
#
# Disc length: 1197 seconds
#
# Revision: 1
# Processed by: cddbd v1.5PL3 Copyright (c) Steve Scherf et al.
# Submitted via: CDex 1.50Beta5
#
DISCID=1b04ab03
DTITLE=GLAY - ずっと２人で…
DYEAR=1995
DGENRE=Rock
TTITLE0=ずっと２人で…
TTITLE1=Gone With The Wind
TTITLE2=Acid Head
EXTD=
EXTT0=
EXTT1=
EXTT2=
PLAYORDER=
